<svg xmlns="http://www.w3.org/2000/svg" viewBox="43.7 128.6 522.4 597.9" enable-background="new 43.7 128.6 522.4 597.9"><linearGradient id="a" x1="91.106" x2="214.915" y1="422.945" y2="593.352" gradientUnits="userSpaceOnUse" gradientTransform="matrix(2.633 0 0 -2.633 -203.026 1810.844)"><stop offset="0" stop-color="#E3378C"/><stop offset=".36" stop-color="#ED6A60"/><stop offset="1" stop-color="#EAE200"/></linearGradient><path fill="url(#a)" d="M392.8 421.3c-27.6 0-50 22.1-50 49.2s22.4 49.2 50 49.2 50-22.1 50-49.2-22.3-49.2-50-49.2zm0 70.3c-11.8 0-21.3-9.5-21.3-21.1s9.7-21.1 21.3-21.1c11.8 0 21.3 9.5 21.3 21.1 0 11.9-9.7 21.1-21.3 21.1zm60-142.1l-56.6-55.8-64.8 63.7c-25.5-18.7-56.1-29-87.9-29-37.6 0-72.1 14-100 39.5V178.3c0-27.1-22.1-49.2-49.2-49.8-27.9.5-50.6 22.6-50.6 49.8v499.2c0 27.1 21.3 48.4 49.2 48.4 14 0 26.6-5.3 35.8-14.2 9.2 9 21.9 15.3 35.8 15.3 27.6 0 50.6-22.1 50.6-49.2v-64.2c10.5 2.1 22.6 3.2 33.2 2.6v61.3c0 27.1 22.1 49.2 49.8 49.2 14.5 0 27.1-5.8 36.3-15.3 9.2 9.5 22.4 15.3 36.6 15.3 27.6 0 50.6-22.1 50.6-49.2v-81.4c19.2-3.7 37.4-11.6 53.2-23.4 4.5-3.4 8.2-7.1 12.1-11.1 15.3-15 26.9-34 32.6-54.2.5-1.3 1.6-2.9 1.6-4.2l45-106.9-113.3-46.8zm-265.9 328c0 11.6-10.3 21.1-22.1 21.1-11.3 0-21.1-8.7-21.9-19.5 0-.5.3-102.2.3-102.2 14 11.8 27.9 21.1 43.7 27.6v73zm133 0c0 11.6-9.2 21.1-21.3 21.1-11.8 0-20.8-9.5-20.8-21.1v-93.2l-17.1 2.4c-5.8.8-12.1 1.3-17.9 1.3-31.1 0-60.3-12.1-82.4-33.7l-45.5-45.5V523s-.5 155.9-.5 156.1c-.8 10.8-10.5 19.5-21.9 19.5-12.1 0-21.3-9.2-21.3-20.8V178.3c0-11.6 9.5-22.9 21.3-22.9 11.6 0 22.4 11.1 22.4 22.9v257.5l45.8-45.3c22.1-21.9 51.1-34 82.1-34 24.2 0 47.7 7.4 67.7 20.8l-5.3 5.3c-50 49.2-49.8 129.3.3 178.5 4.5 4.5 10.8 8.4 14.2 11.8v104.5h.2zm71.9 0c0 11.6-9.2 21.1-21.1 21.1s-21.1-9.5-21.1-21.1v-88.2c14 5.3 27.9 8.4 42.1 9v79.2zm95-165.1c-.3.5-.5 1.1-.8 1.8-1.8 3.9-4.2 7.9-6.6 11.6-3.7 5.5-7.9 10.5-12.6 15.3l-.3.3c-1.1-2.6-1.8-5.5-1.8-8.4 0-11.6 9.7-21.1 21.3-21.1.3 0 .5 0 1.1 0-.3.3-.3.5-.3.5zm7.9-28.1c-2.9-.5-5.8-.8-8.7-.8-27.6 0-50 22.1-50 49.2 0 9.2 2.6 17.9 7.4 25.5-14.5 7.6-30.8 11.8-47.1 11.8-13.7 0-26.9-2.6-39-7.9-9-3.7-17.1-8.7-24.7-15-2.4-1.8-4.5-3.9-6.6-6.1-38.7-38.2-38.7-100.3 0-138.5l6.3-6.3 20.3-20 43.7-42.9 20 19.5 21.9 21.6 28.4 28.2c18.7 18.4 29.2 43.2 29.2 69.2-.3 4.3-.6 8.5-1.1 12.5zm23.7-50.1c-3.9-12.1-9.5-23.7-17.1-34.2l26.9 11.1-9.8 23.1zM92.9 128.6c.3 0 .3 0 0 0 .3 0 .3 0 0 0zm1.4.2h-1.1c.3 0 .5 0 .5 0 .3 0 .3 0 .6 0z"/></svg>